{
  "accessors": [
    {
      "bufferView": 0,
      "componentType": 5126,
      "count": 204,
      "max": [
        0.6545342803001404,
        0.667432963848114,
        0.6640355587005615
      ],
      "min": [
        -0.6281970739364624,
        -0.503515899181366,
        -0.01523865107446909
      ],
      "name": "M_Helix001/POSITION",
      "type": "VEC3"
    },
    {
      "bufferView": 0,
      "byteOffset": 12,
      "componentType": 5126,
      "count": 204,
      "name": "M_Helix001/NORMAL",
      "type": "VEC3"
    },
    {
      "bufferView": 0,
      "byteOffset": 24,
      "componentType": 5126,
      "count": 204,
      "name": "M_Helix001/TEXCOORD_0",
      "type": "VEC2"
    },
    {
      "bufferView": 0,
      "byteOffset": 32,
      "componentType": 5126,
      "count": 204,
      "name": "M_Helix001/COLOR_0",
      "type": "VEC4"
    },
    {
      "bufferView": 1,
      "componentType": 5123,
      "count": 600,
      "name": "M_Helix001/INDICES",
      "type": "SCALAR"
    }
  ],
  "asset": {
    "copyright": "Copyright (c) 2018-2020 Chukong Technologies Inc.",
    "generator": "FBX-glTF-conv",
    "version": "2.0"
  },
  "bufferViews": [
    {
      "buffer": 0,
      "byteLength": 9792,
      "byteStride": 48,
      "name": "M_Helix001",
      "target": 34962
    },
    {
      "buffer": 0,
      "byteLength": 1200,
      "byteOffset": 9792,
      "target": 34963
    }
  ],
  "buffers": [
    {
      "byteLength": 10992,
      "uri": "out.bin"
    }
  ],
  "extras": {
    "FBX-glTF-conv": {
      "animationFrameRate": 30.0,
      "fbxFileHeaderInfo": {
        "creationTimeStamp": {
          "day": 7,
          "hour": 15,
          "millisecond": 475,
          "minute": 5,
          "month": 6,
          "second": 19,
          "year": 2018
        },
        "creator": "FBX SDK/FBX Plugins version 2014.0.1",
        "sceneInfo": {
          "author": "",
          "comment": "",
          "keywords": "",
          "original": {
            "applicationName": "3ds Max",
            "applicationVendor": "Autodesk",
            "applicationVersion": "2014",
            "fileName": "E:\\192.168.16.3\\tech\\branches\\art_new_combat\\Client\\Assets\\WorkAssets\\ArtResources\\Effect\\WYM\\FBX\\M_Helix001.FBX"
          },
          "revision": "",
          "subject": "",
          "title": "",
          "url": "D:\\PlayableAdsLibrary\\assets\\library-extension\\_VFX\\3DCartoon\\Mesh\\folder\\Helix001.FBX"
        }
      }
    }
  },
  "meshes": [
    {
      "name": "M_Helix001",
      "primitives": [
        {
          "attributes": {
            "COLOR_0": 3,
            "NORMAL": 1,
            "POSITION": 0,
            "TEXCOORD_0": 2
          },
          "indices": 4
        }
      ]
    }
  ],
  "nodes": [
    {
      "mesh": 0,
      "name": "M_Helix001",
      "rotation": [
        -0.7071067690849304,
        -0.0,
        0.0,
        0.7071067690849304
      ]
    }
  ],
  "scenes": [
    {
      "nodes": [
        0
      ]
    }
  ]
}