{
  "accessors": [
    {
      "bufferView": 0,
      "componentType": 5126,
      "count": 60,
      "max": [
        9.02529239654541,
        10.249078750610352,
        0.0019063353538513184
      ],
      "min": [
        -10.23875904083252,
        -10.207818984985352,
        0.0019063353538513184
      ],
      "name": "Tube001/POSITION",
      "type": "VEC3"
    },
    {
      "bufferView": 0,
      "byteOffset": 12,
      "componentType": 5126,
      "count": 60,
      "name": "Tube001/NORMAL",
      "type": "VEC3"
    },
    {
      "bufferView": 0,
      "byteOffset": 24,
      "componentType": 5126,
      "count": 60,
      "name": "Tube001/TEXCOORD_0",
      "type": "VEC2"
    },
    {
      "bufferView": 1,
      "componentType": 5123,
      "count": 174,
      "name": "Tube001/INDICES",
      "type": "SCALAR"
    }
  ],
  "asset": {
    "copyright": "Copyright (c) 2018-2020 Chukong Technologies Inc.",
    "generator": "FBX-glTF-conv",
    "version": "2.0"
  },
  "bufferViews": [
    {
      "buffer": 0,
      "byteLength": 1920,
      "byteStride": 32,
      "name": "Tube001",
      "target": 34962
    },
    {
      "buffer": 0,
      "byteLength": 348,
      "byteOffset": 1920,
      "target": 34963
    }
  ],
  "buffers": [
    {
      "byteLength": 2268,
      "uri": "out.bin"
    }
  ],
  "extras": {
    "FBX-glTF-conv": {
      "animationFrameRate": 30.0,
      "fbxFileHeaderInfo": {
        "creationTimeStamp": {
          "day": 17,
          "hour": 22,
          "millisecond": 833,
          "minute": 39,
          "month": 12,
          "second": 0,
          "year": 2023
        },
        "creator": "FBX SDK/FBX Plugins version 2014.0.1",
        "sceneInfo": {
          "author": "",
          "comment": "",
          "keywords": "",
          "original": {
            "applicationName": "3ds Max",
            "applicationVendor": "Autodesk",
            "applicationVersion": "2014",
            "fileName": "D:\\Users\\Administrator\\NewProject_1\\assets\\mesh\\trail5.FBX"
          },
          "revision": "",
          "subject": "",
          "title": "",
          "url": "D:\\PlayableAdsLibrary\\assets\\library-extension\\_VFX\\UniversalCartoon\\mesh\\trail5.FBX"
        }
      }
    }
  },
  "meshes": [
    {
      "name": "Tube001",
      "primitives": [
        {
          "attributes": {
            "NORMAL": 1,
            "POSITION": 0,
            "TEXCOORD_0": 2
          },
          "indices": 3
        }
      ]
    }
  ],
  "nodes": [
    {
      "mesh": 0,
      "name": "Tube001",
      "rotation": [
        -0.7071067690849304,
        -0.0,
        0.0,
        0.7071067690849304
      ],
      "translation": [
        0.0,
        0.0,
        -2.3139807581173955e-07
      ]
    }
  ],
  "scenes": [
    {
      "nodes": [
        0
      ]
    }
  ]
}