{
  "accessors": [
    {
      "bufferView": 0,
      "componentType": 5126,
      "count": 25,
      "max": [
        0.3499999940395355,
        0.05000000074505806,
        0.5
      ],
      "min": [
        -0.3499999940395355,
        -0.15000000596046448,
        -0.5
      ],
      "name": "cfxr mesh leave/POSITION",
      "type": "VEC3"
    },
    {
      "bufferView": 0,
      "byteOffset": 12,
      "componentType": 5126,
      "count": 25,
      "name": "cfxr mesh leave/NORMAL",
      "type": "VEC3"
    },
    {
      "bufferView": 0,
      "byteOffset": 24,
      "componentType": 5126,
      "count": 25,
      "name": "cfxr mesh leave/TEXCOORD_0",
      "type": "VEC2"
    },
    {
      "bufferView": 1,
      "componentType": 5123,
      "count": 96,
      "name": "cfxr mesh leave/INDICES",
      "type": "SCALAR"
    }
  ],
  "asset": {
    "copyright": "Copyright (c) 2018-2020 Chukong Technologies Inc.",
    "generator": "FBX-glTF-conv",
    "version": "2.0"
  },
  "bufferViews": [
    {
      "buffer": 0,
      "byteLength": 800,
      "byteStride": 32,
      "name": "cfxr mesh leave",
      "target": 34962
    },
    {
      "buffer": 0,
      "byteLength": 192,
      "byteOffset": 800,
      "target": 34963
    }
  ],
  "buffers": [
    {
      "byteLength": 992,
      "uri": "out.bin"
    }
  ],
  "extras": {
    "FBX-glTF-conv": {
      "animationFrameRate": 24.0,
      "fbxFileHeaderInfo": {
        "creationTimeStamp": {
          "day": 11,
          "hour": 14,
          "millisecond": 883,
          "minute": 9,
          "month": 5,
          "second": 25,
          "year": 2021
        },
        "creator": "Blender (stable FBX IO) - 2.90.0 - 4.21.3",
        "sceneInfo": {
          "author": "",
          "comment": "",
          "keywords": "",
          "original": {
            "applicationName": "Blender (stable FBX IO)",
            "applicationVendor": "Blender Foundation",
            "applicationVersion": "2.90.0",
            "fileName": "/foobar.fbx"
          },
          "revision": "",
          "subject": "",
          "title": "",
          "url": "D:\\PlayableAdsLibrary\\assets\\library-extension\\_VFX\\3DCartoon\\Mesh\\mesh_leave.fbx"
        }
      }
    }
  },
  "meshes": [
    {
      "name": "cfxr mesh leave",
      "primitives": [
        {
          "attributes": {
            "NORMAL": 1,
            "POSITION": 0,
            "TEXCOORD_0": 2
          },
          "indices": 3
        }
      ]
    }
  ],
  "nodes": [
    {
      "mesh": 0,
      "name": "cfxr mesh leave"
    }
  ],
  "scenes": [
    {
      "name": "Scene",
      "nodes": [
        0
      ]
    }
  ]
}