{
  "accessors": [
    {
      "bufferView": 0,
      "componentType": 5126,
      "count": 87,
      "max": [
        0.7850437760353088,
        0.7567927241325378,
        3.9900651671587184e-08
      ],
      "min": [
        -0.7470830678939819,
        -0.7693856358528137,
        -4.0326238348598054e-08
      ],
      "name": "Loft001/POSITION",
      "type": "VEC3"
    },
    {
      "bufferView": 0,
      "byteOffset": 12,
      "componentType": 5126,
      "count": 87,
      "name": "Loft001/NORMAL",
      "type": "VEC3"
    },
    {
      "bufferView": 0,
      "byteOffset": 24,
      "componentType": 5126,
      "count": 87,
      "name": "Loft001/TEXCOORD_0",
      "type": "VEC2"
    },
    {
      "bufferView": 1,
      "componentType": 5123,
      "count": 336,
      "name": "Loft001/INDICES",
      "type": "SCALAR"
    }
  ],
  "asset": {
    "copyright": "Copyright (c) 2018-2020 Chukong Technologies Inc.",
    "generator": "FBX-glTF-conv",
    "version": "2.0"
  },
  "bufferViews": [
    {
      "buffer": 0,
      "byteLength": 2784,
      "byteStride": 32,
      "name": "Loft001",
      "target": 34962
    },
    {
      "buffer": 0,
      "byteLength": 672,
      "byteOffset": 2784,
      "target": 34963
    }
  ],
  "buffers": [
    {
      "byteLength": 3456,
      "uri": "out.bin"
    }
  ],
  "extras": {
    "FBX-glTF-conv": {
      "animationFrameRate": 30.0,
      "fbxFileHeaderInfo": {
        "creationTimeStamp": {
          "day": 14,
          "hour": 21,
          "millisecond": 411,
          "minute": 8,
          "month": 12,
          "second": 16,
          "year": 2023
        },
        "creator": "FBX SDK/FBX Plugins version 2014.0.1",
        "sceneInfo": {
          "author": "",
          "comment": "",
          "keywords": "",
          "original": {
            "applicationName": "3ds Max",
            "applicationVendor": "Autodesk",
            "applicationVersion": "2014",
            "fileName": "D:\\Users\\Administrator\\NewProject_1\\assets\\mesh\\trail3.FBX"
          },
          "revision": "",
          "subject": "",
          "title": "",
          "url": "D:\\PlayableAdsLibrary\\assets\\library-extension\\_VFX\\UniversalCartoon\\mesh\\trail3.FBX"
        }
      }
    }
  },
  "meshes": [
    {
      "name": "Loft001",
      "primitives": [
        {
          "attributes": {
            "NORMAL": 1,
            "POSITION": 0,
            "TEXCOORD_0": 2
          },
          "indices": 3
        }
      ]
    }
  ],
  "nodes": [
    {
      "mesh": 0,
      "name": "Loft001",
      "rotation": [
        -0.7071067690849304,
        -0.0,
        0.0,
        0.7071067690849304
      ],
      "translation": [
        -0.020153433084487915,
        0.0,
        0.0024349987506866455
      ]
    }
  ],
  "scenes": [
    {
      "nodes": [
        0
      ]
    }
  ]
}