{
  "accessors": [
    {
      "bufferView": 0,
      "componentType": 5126,
      "count": 129,
      "max": [
        0.9152536392211914,
        0.9110068082809448,
        1.1244282722473145
      ],
      "min": [
        -0.9568017721176147,
        -0.9124982357025146,
        -0.7158929705619812
      ],
      "name": "Loft001/POSITION",
      "type": "VEC3"
    },
    {
      "bufferView": 0,
      "byteOffset": 12,
      "componentType": 5126,
      "count": 129,
      "name": "Loft001/NORMAL",
      "type": "VEC3"
    },
    {
      "bufferView": 0,
      "byteOffset": 24,
      "componentType": 5126,
      "count": 129,
      "name": "Loft001/TEXCOORD_0",
      "type": "VEC2"
    },
    {
      "bufferView": 1,
      "componentType": 5123,
      "count": 504,
      "name": "Loft001/INDICES",
      "type": "SCALAR"
    }
  ],
  "asset": {
    "copyright": "Copyright (c) 2018-2020 Chukong Technologies Inc.",
    "generator": "FBX-glTF-conv",
    "version": "2.0"
  },
  "bufferViews": [
    {
      "buffer": 0,
      "byteLength": 4128,
      "byteStride": 32,
      "name": "Loft001",
      "target": 34962
    },
    {
      "buffer": 0,
      "byteLength": 1008,
      "byteOffset": 4128,
      "target": 34963
    }
  ],
  "buffers": [
    {
      "byteLength": 5136,
      "uri": "out.bin"
    }
  ],
  "extras": {
    "FBX-glTF-conv": {
      "animationFrameRate": 30.0,
      "fbxFileHeaderInfo": {
        "creationTimeStamp": {
          "day": 13,
          "hour": 18,
          "millisecond": 429,
          "minute": 31,
          "month": 12,
          "second": 24,
          "year": 2023
        },
        "creator": "FBX SDK/FBX Plugins version 2014.0.1",
        "sceneInfo": {
          "author": "",
          "comment": "",
          "keywords": "",
          "original": {
            "applicationName": "3ds Max",
            "applicationVendor": "Autodesk",
            "applicationVersion": "2014",
            "fileName": "D:\\Users\\Administrator\\NewProject_1\\assets\\mesh\\trail.FBX"
          },
          "revision": "",
          "subject": "",
          "title": "",
          "url": "D:\\PlayableAdsLibrary\\assets\\library-extension\\_VFX\\UniversalCartoon\\mesh\\trail.FBX"
        }
      }
    }
  },
  "meshes": [
    {
      "name": "Loft001",
      "primitives": [
        {
          "attributes": {
            "NORMAL": 1,
            "POSITION": 0,
            "TEXCOORD_0": 2
          },
          "indices": 3
        }
      ]
    }
  ],
  "nodes": [
    {
      "mesh": 0,
      "name": "Loft001",
      "rotation": [
        -0.7071067690849304,
        -0.0,
        0.0,
        0.7071067690849304
      ],
      "translation": [
        0.0,
        0.52166748046875,
        0.0
      ]
    }
  ],
  "scenes": [
    {
      "nodes": [
        0
      ]
    }
  ]
}