{
  "accessors": [
    {
      "bufferView": 0,
      "componentType": 5126,
      "count": 323,
      "max": [
        1.0,
        1.0,
        1.0
      ],
      "min": [
        -1.0,
        -1.0,
        -1.0
      ],
      "name": "Sphere001/POSITION",
      "type": "VEC3"
    },
    {
      "bufferView": 0,
      "byteOffset": 12,
      "componentType": 5126,
      "count": 323,
      "name": "Sphere001/NORMAL",
      "type": "VEC3"
    },
    {
      "bufferView": 0,
      "byteOffset": 24,
      "componentType": 5126,
      "count": 323,
      "name": "Sphere001/TEXCOORD_0",
      "type": "VEC2"
    },
    {
      "bufferView": 1,
      "componentType": 5123,
      "count": 1584,
      "name": "Sphere001/INDICES",
      "type": "SCALAR"
    }
  ],
  "asset": {
    "copyright": "Copyright (c) 2018-2020 Chukong Technologies Inc.",
    "generator": "FBX-glTF-conv",
    "version": "2.0"
  },
  "bufferViews": [
    {
      "buffer": 0,
      "byteLength": 10336,
      "byteStride": 32,
      "name": "Sphere001",
      "target": 34962
    },
    {
      "buffer": 0,
      "byteLength": 3168,
      "byteOffset": 10336,
      "target": 34963
    }
  ],
  "buffers": [
    {
      "byteLength": 13504,
      "uri": "out.bin"
    }
  ],
  "extras": {
    "FBX-glTF-conv": {
      "animationFrameRate": 30.0,
      "fbxFileHeaderInfo": {
        "creationTimeStamp": {
          "day": 11,
          "hour": 23,
          "millisecond": 434,
          "minute": 8,
          "month": 12,
          "second": 10,
          "year": 2023
        },
        "creator": "FBX SDK/FBX Plugins version 2014.0.1",
        "sceneInfo": {
          "author": "",
          "comment": "",
          "keywords": "",
          "original": {
            "applicationName": "3ds Max",
            "applicationVendor": "Autodesk",
            "applicationVersion": "2014",
            "fileName": "C:\\Users\\Administrator\\Desktop\\sphere.FBX"
          },
          "revision": "",
          "subject": "",
          "title": "",
          "url": "D:\\PlayableAdsLibrary\\assets\\library-extension\\_VFX\\UniversalCartoon\\mesh\\sphere.FBX"
        }
      }
    }
  },
  "meshes": [
    {
      "name": "Sphere001",
      "primitives": [
        {
          "attributes": {
            "NORMAL": 1,
            "POSITION": 0,
            "TEXCOORD_0": 2
          },
          "indices": 3
        }
      ]
    }
  ],
  "nodes": [
    {
      "mesh": 0,
      "name": "Sphere001",
      "rotation": [
        -0.7071067690849304,
        -0.0,
        0.0,
        0.7071067690849304
      ]
    }
  ],
  "scenes": [
    {
      "nodes": [
        0
      ]
    }
  ]
}